<svg xmlns="http://www.w3.org/2000/svg" version="1.1" xmlns:xlink="http://www.w3.org/1999/xlink" width="1146.05" height="1146.05"><svg id="SvgjsSvg1005" xmlns="http://www.w3.org/2000/svg" version="1.1" viewBox="0 0 1146.05 1146.05">
  <!-- Generator: Adobe Illustrator 29.5.1, SVG Export Plug-In . SVG Version: 2.1.0 Build 141)  -->
  <defs>
    <style>
      .st0 {
        fill: #fff;
      }

      .st1 {
        fill: #eb630b;
      }

      .st2 {
        fill: #112d45;
      }
    </style>
  </defs>
  <rect class="st0" x="149.92" y="149.92" width="846.21" height="846.21" rx="182.86" ry="182.86"></rect>
  <g>
    <g>
      <path class="st2" d="M573.94,442.2c-18.13,21.74-30.14,46.97-40.26,73.93-4.64-4.59-8.61-8.3-12.34-12.23-15.77-16.6-34.39-28.35-57.14-32.42-36-6.45-67.64,2.55-93.7,28.52-54.93,54.73-32.88,147.31,40.78,171.87,58.58,19.53,122.54-17.76,134.52-78.12,2.13-10.75,1.56-21.54,2.4-32.3,4.46-57.15,29.31-103.52,75.63-137.01,53.57-38.74,112.4-45.96,174.67-23.54,33.79,12.17,60.57,33.8,82.41,61.92.77.99,1.52,2,2.31,2.97,5.58,6.92,5.62,6.98-1.89,11.32-19.83,11.46-39.74,22.78-59.5,34.34-3.17,1.86-4.77.74-6.63-1.62-12.28-15.51-27.9-26.52-46.3-33.6-21.69-8.35-43.85-9.47-65.95-2.33-41.31,13.34-65.41,41.98-73.24,84.4-2.06,11.14-.8,22.54-2.07,33.78-5.68,50.19-27.82,91.61-66.76,123.78-28.7,23.71-61.79,37.88-98.98,40.75-73.27,5.66-131.28-22.06-172.64-82.58-25.1-36.73-34.27-78.16-29-122.23,5.94-49.71,28.78-90.48,67.81-122.16,37.33-30.3,80.27-43.45,127.87-40.62,45.12,2.69,83.87,20.94,116.89,51.57.22.21.36.51,1.11,1.61Z"></path>
      <path class="st2" d="M642.38,629.66c5.48,5.52,10.25,10.25,14.94,15.05,17.15,17.55,37.75,28.43,62.19,31.37,32.7,3.94,61.05-5.83,85.07-28.19,3.55-3.31,6.77-6.99,10-10.62,1.19-1.33,2.01-2.04,3.87-.96,22.51,13.07,45.07,26.05,67.62,39.07.12.07.16.25.57.94-5.24,7.25-11.08,14.36-17.29,21.13-30.59,33.32-68.51,52.88-113.27,58.76-29.71,3.9-58.75.48-87.1-9.69-23.93-8.58-44.41-22.43-63.39-38.89-1.92-1.66-3.42-3.12-1.32-5.83,16.69-21.49,29.03-45.32,38.11-72.14Z"></path>
    </g>
    <circle class="st1" cx="444.03" cy="573.43" r="64.89"></circle>
  </g>
</svg><style>@media (prefers-color-scheme: light) { :root { filter: none; } }
@media (prefers-color-scheme: dark) { :root { filter: none; } }
</style></svg>